<svg width="15" height="15" viewBox="0 0 15 15" fill="none" xmlns="http://www.w3.org/2000/svg">
<path d="M5.23047 11.6328C5.23047 11.5781 5.17578 11.5234 5.09375 11.5234C5.01172 11.5234 4.95703 11.5781 4.95703 11.6328C4.95703 11.6875 5.01172 11.7422 5.09375 11.7148C5.17578 11.7148 5.23047 11.6875 5.23047 11.6328ZM4.38281 11.4961C4.38281 11.5508 4.4375 11.6328 4.51953 11.6328C4.57422 11.6602 4.65625 11.6328 4.68359 11.5781C4.68359 11.5234 4.65625 11.4688 4.57422 11.4414C4.49219 11.4141 4.41016 11.4414 4.38281 11.4961ZM5.61328 11.4688C5.53125 11.4688 5.47656 11.5234 5.47656 11.6055C5.47656 11.6602 5.55859 11.6875 5.64062 11.6602C5.72266 11.6328 5.77734 11.6055 5.75 11.5508C5.75 11.4961 5.66797 11.4414 5.61328 11.4688ZM7.39062 0.96875C3.61719 0.96875 0.71875 3.86719 0.71875 7.64062C0.71875 10.6758 2.60547 13.2734 5.33984 14.2031C5.69531 14.2578 5.80469 14.0391 5.80469 13.875C5.80469 13.6836 5.80469 12.7539 5.80469 12.1797C5.80469 12.1797 3.89062 12.5898 3.48047 11.3594C3.48047 11.3594 3.17969 10.5664 2.74219 10.375C2.74219 10.375 2.11328 9.9375 2.76953 9.9375C2.76953 9.9375 3.45312 9.99219 3.83594 10.6484C4.4375 11.7148 5.42188 11.4141 5.83203 11.2227C5.88672 10.7852 6.05078 10.4844 6.26953 10.293C4.73828 10.1289 3.17969 9.91016 3.17969 7.28516C3.17969 6.51953 3.39844 6.16406 3.83594 5.67188C3.75391 5.48047 3.53516 4.76953 3.91797 3.8125C4.46484 3.64844 5.80469 4.55078 5.80469 4.55078C6.35156 4.38672 6.92578 4.33203 7.5 4.33203C8.10156 4.33203 8.67578 4.38672 9.22266 4.55078C9.22266 4.55078 10.5352 3.62109 11.1094 3.8125C11.4922 4.76953 11.2461 5.48047 11.1914 5.67188C11.6289 6.16406 11.9023 6.51953 11.9023 7.28516C11.9023 9.91016 10.2891 10.1289 8.75781 10.293C9.00391 10.5117 9.22266 10.9219 9.22266 11.5781C9.22266 12.4805 9.19531 13.6289 9.19531 13.8477C9.19531 14.0391 9.33203 14.2578 9.6875 14.1758C12.4219 13.2734 14.2812 10.6758 14.2812 7.64062C14.2812 3.86719 11.1914 0.96875 7.39062 0.96875ZM3.37109 10.4023C3.31641 10.4297 3.34375 10.5117 3.37109 10.5664C3.42578 10.5938 3.48047 10.6211 3.53516 10.5938C3.5625 10.5664 3.5625 10.4844 3.50781 10.4297C3.45312 10.4023 3.39844 10.375 3.37109 10.4023ZM3.07031 10.1836C3.04297 10.2383 3.07031 10.2656 3.125 10.293C3.17969 10.3203 3.23438 10.3203 3.26172 10.2656C3.26172 10.2383 3.23438 10.2109 3.17969 10.1836C3.125 10.1562 3.09766 10.1562 3.07031 10.1836ZM3.94531 11.168C3.91797 11.1953 3.91797 11.2773 4 11.332C4.05469 11.3867 4.13672 11.4141 4.16406 11.3594C4.19141 11.332 4.19141 11.25 4.13672 11.1953C4.08203 11.1406 4 11.1133 3.94531 11.168ZM3.64453 10.7578C3.58984 10.7852 3.58984 10.8672 3.64453 10.9219C3.69922 10.9766 3.75391 11.0039 3.80859 10.9766C3.83594 10.9492 3.83594 10.8672 3.80859 10.8125C3.75391 10.7578 3.69922 10.7305 3.64453 10.7578Z" fill="white"/>
</svg>
